<mxfile host="app.diagrams.net" modified="2023-11-06T03:01:01.473Z" agent="Mozilla/5.0 (Macintosh; Intel Mac OS X 10_15_7) AppleWebKit/537.36 (KHTML, like Gecko) Chrome/118.0.0.0 Safari/537.36" etag="0czfHIZPmhgMnJ7qCqx-" version="22.0.8" type="github">
  <diagram name="第 1 页" id="x31inG7d_730w3KnNFkD">
    <mxGraphModel dx="2074" dy="1125" grid="1" gridSize="10" guides="1" tooltips="1" connect="1" arrows="1" fold="1" page="1" pageScale="1" pageWidth="827" pageHeight="1169" math="0" shadow="0">
      <root>
        <mxCell id="0" />
        <mxCell id="1" parent="0" />
        <mxCell id="zGF38Er_j_W_UDSWtksg-1" value="" style="html=1;shadow=0;dashed=0;shape=mxgraph.bootstrap.rrect;rSize=5;strokeColor=#6C767D;html=1;whiteSpace=wrap;fillColor=#ffffff;fontColor=#6C767D;verticalAlign=bottom;align=left;spacing=20;spacingBottom=0;fontSize=14;" vertex="1" parent="1">
          <mxGeometry x="20" y="280" width="800" height="570" as="geometry" />
        </mxCell>
        <mxCell id="zGF38Er_j_W_UDSWtksg-2" value="变更申请" style="html=1;shadow=0;dashed=0;shape=mxgraph.bootstrap.topButton;rSize=5;perimeter=none;whiteSpace=wrap;fillColor=#F7F7F7;strokeColor=#6C767D;fontColor=#6C767D;resizeWidth=1;fontSize=18;align=left;spacing=20;" vertex="1" parent="zGF38Er_j_W_UDSWtksg-1">
          <mxGeometry width="799.9999999999999" height="50" relative="1" as="geometry" />
        </mxCell>
        <mxCell id="zGF38Er_j_W_UDSWtksg-3" value="DNS变更" style="html=1;shadow=0;dashed=0;shape=mxgraph.bootstrap.rrect;rSize=5;strokeColor=none;strokeWidth=1;fillColor=#1CA5B8;fontColor=#FFFFFF;whiteSpace=wrap;align=center;verticalAlign=middle;spacingLeft=0;fontStyle=0;fontSize=16;spacing=5;" vertex="1" parent="zGF38Er_j_W_UDSWtksg-1">
          <mxGeometry x="30" y="70" width="110" height="90" as="geometry" />
        </mxCell>
        <mxCell id="zGF38Er_j_W_UDSWtksg-5" value="Ingress变更" style="html=1;shadow=0;dashed=0;shape=mxgraph.bootstrap.rrect;rSize=5;strokeColor=none;strokeWidth=1;fillColor=#1CA5B8;fontColor=#FFFFFF;whiteSpace=wrap;align=center;verticalAlign=middle;spacingLeft=0;fontStyle=0;fontSize=16;spacing=5;" vertex="1" parent="zGF38Er_j_W_UDSWtksg-1">
          <mxGeometry x="170" y="70" width="110" height="90" as="geometry" />
        </mxCell>
        <mxCell id="zGF38Er_j_W_UDSWtksg-6" value="发布模板变更" style="html=1;shadow=0;dashed=0;shape=mxgraph.bootstrap.rrect;rSize=5;strokeColor=none;strokeWidth=1;fillColor=#1CA5B8;fontColor=#FFFFFF;whiteSpace=wrap;align=center;verticalAlign=middle;spacingLeft=0;fontStyle=0;fontSize=16;spacing=5;" vertex="1" parent="zGF38Er_j_W_UDSWtksg-1">
          <mxGeometry x="300" y="70" width="120" height="90" as="geometry" />
        </mxCell>
        <mxCell id="zGF38Er_j_W_UDSWtksg-7" value="SLS日志变更" style="html=1;shadow=0;dashed=0;shape=mxgraph.bootstrap.rrect;rSize=5;strokeColor=none;strokeWidth=1;fillColor=#1CA5B8;fontColor=#FFFFFF;whiteSpace=wrap;align=center;verticalAlign=middle;spacingLeft=0;fontStyle=0;fontSize=16;spacing=5;" vertex="1" parent="zGF38Er_j_W_UDSWtksg-1">
          <mxGeometry x="440" y="70" width="110" height="90" as="geometry" />
        </mxCell>
        <mxCell id="zGF38Er_j_W_UDSWtksg-8" value="其他" style="html=1;shadow=0;dashed=0;shape=mxgraph.bootstrap.rrect;rSize=5;strokeColor=none;strokeWidth=1;fillColor=#1CA5B8;fontColor=#FFFFFF;whiteSpace=wrap;align=center;verticalAlign=middle;spacingLeft=0;fontStyle=0;fontSize=16;spacing=5;" vertex="1" parent="zGF38Er_j_W_UDSWtksg-1">
          <mxGeometry x="580" y="70" width="110" height="90" as="geometry" />
        </mxCell>
      </root>
    </mxGraphModel>
  </diagram>
</mxfile>
